<?xml version="1.0" encoding="UTF-8"?>
<svg id="Layer_1" data-name="Layer 1" xmlns="http://www.w3.org/2000/svg" viewBox="0 0 524 522">
  <defs>
    <style>
      .cls-1 {
        fill: #fbfdfd;
      }

      .cls-2 {
        fill: #007bff;
      }
    </style>
  </defs>
  <circle class="cls-2" cx="262" cy="261.22" r="256"/>
  <path class="cls-1" d="M311.82,260.59c-18.98,19.06-41.59,43.94-55.3,67.1-9.22,15.58-15.44,40.79-40.19,28.86-7.93-3.82-25.39-31.28-32.93-40.03-11.86-13.74-24.69-24.86-39.01-35.94-7.33-5.67-19.13-10.58-22.68-19.3-7.9-19.45,9.77-37.8,29.44-30.47,4.73,1.76,13.68,8.54,18.2,11.77,20.45,14.58,38.32,32.28,54.52,51.39,14.45-19.29,29.43-38.4,45.93-56,24.37-25.99,81.3-79.06,118.87-74.99,16.52,1.79,21.11,25.1,10.47,36.49-4.94,5.29-22.91,11.18-30.63,15.34-21.15,11.39-39.86,28.86-56.69,45.76Z"/>
</svg>